<?xml version="1.0" encoding="UTF-8" standalone="no"?>
<!DOCTYPE svg PUBLIC "-//W3C//DTD SVG 1.1//EN" "http://www.w3.org/Graphics/SVG/1.1/DTD/svg11.dtd">
<svg width="100%" height="100%" viewBox="0 0 1099 681" version="1.1" xmlns="http://www.w3.org/2000/svg" xmlns:xlink="http://www.w3.org/1999/xlink" xml:space="preserve" xmlns:serif="http://www.serif.com/" style="fill-rule:evenodd;clip-rule:evenodd;stroke-linecap:round;stroke-miterlimit:1.5;">
    <g transform="matrix(1,0,0,1,-232.023,-218.128)">
        <g transform="matrix(1,0,0,1,-15.9026,0)">
            <g transform="matrix(1,0,0,1,-432.941,-83.7646)">
                <path d="M793.137,731.23C870.695,666.104 1037.86,620.999 1231.38,620.999C1422.46,620.999 1587.85,664.972 1666.65,728.771C1559.29,690.314 1404.82,666.175 1233.27,666.175C1058.08,666.175 900.723,691.346 793.137,731.23Z" style="fill:rgb(161,205,21);stroke:rgb(163,209,12);stroke-width:3px;"/>
            </g>
            <g>
                <g transform="matrix(1,0,0,1,300.32,-63.9692)">
                    <path d="M218.727,618.287C311.68,515.064 205.332,420.265 205.332,420.265C205.332,420.265 204.733,420.191 205.332,420.265C243.42,425.009 293.291,457.444 293.77,455.676C312.911,385.039 288.671,304.286 287.059,302.824C308.691,343.954 397.796,485.217 218.727,618.287Z" style="fill:rgb(228,95,16);stroke:rgb(205,107,45);stroke-width:3px;stroke-linejoin:round;"/>
                </g>
                <g transform="matrix(0.866397,0,0,0.964421,55.525,3.20877)">
                    <path d="M560.307,279.801C571.84,279.801 593.404,283.851 596.661,286.681C601.31,290.72 603.676,308.015 603.676,319.315C603.676,341.123 584.243,358.829 560.307,358.829C536.371,358.829 516.938,341.123 516.938,319.315C516.938,297.506 536.371,279.801 560.307,279.801Z" style="fill:rgb(228,95,16);stroke:rgb(205,107,45);stroke-width:3.27px;stroke-linejoin:round;"/>
                </g>
            </g>
            <g transform="matrix(1,0,0,1,309.202,16.5289)">
                <g transform="matrix(1,0,0,1,300.32,-63.9692)">
                    <path d="M218.727,618.287C311.68,515.064 205.332,420.265 205.332,420.265C205.332,420.265 204.733,420.191 205.332,420.265C243.42,425.009 293.291,457.444 293.77,455.676C312.911,385.039 288.671,304.286 287.059,302.824C308.691,343.954 397.796,485.217 218.727,618.287Z" style="fill:rgb(224,221,0);stroke:rgb(217,210,114);stroke-width:1px;stroke-linejoin:round;"/>
                </g>
                <g transform="matrix(0.866397,0,0,0.964421,55.525,3.20877)">
                    <path d="M560.307,279.801C571.84,279.801 593.404,283.851 596.661,286.681C601.31,290.72 603.676,308.015 603.676,319.315C603.676,341.123 584.243,358.829 560.307,358.829C536.371,358.829 516.938,341.123 516.938,319.315C516.938,297.506 536.371,279.801 560.307,279.801Z" style="fill:rgb(224,221,0);stroke:rgb(217,210,114);stroke-width:1.09px;stroke-linejoin:round;"/>
                </g>
            </g>
            <g transform="matrix(-1,0,0,1,1275.96,-18.0224)">
                <g transform="matrix(1,0,0,1,300.32,-63.9692)">
                    <path d="M218.727,618.287C311.68,515.064 205.332,420.265 205.332,420.265C205.332,420.265 204.733,420.191 205.332,420.265C243.42,425.009 293.291,457.444 293.77,455.676C312.911,385.039 288.671,304.286 287.059,302.824C308.691,343.954 397.796,485.217 218.727,618.287Z" style="fill:rgb(91,174,218);stroke:rgb(51,128,162);stroke-width:3px;"/>
                </g>
                <g transform="matrix(0.866397,0,0,0.964421,55.525,3.20877)">
                    <path d="M560.307,279.801C571.84,279.801 593.404,283.851 596.661,286.681C601.31,290.72 603.676,308.015 603.676,319.315C603.676,341.123 584.243,358.829 560.307,358.829C536.371,358.829 516.938,341.123 516.938,319.315C516.938,297.506 536.371,279.801 560.307,279.801Z" style="fill:rgb(91,174,218);stroke:rgb(51,128,162);stroke-width:3.27px;"/>
                </g>
            </g>
            <g transform="matrix(-1,0,0,1,1585.52,1.25289)">
                <g transform="matrix(1,0,0,1,300.32,-63.9692)">
                    <path d="M218.727,618.287C311.68,515.064 205.332,420.265 205.332,420.265C205.332,420.265 204.733,420.191 205.332,420.265C243.42,425.009 293.291,457.444 293.77,455.676C312.911,385.039 288.671,304.286 287.059,302.824C308.691,343.954 397.796,485.217 218.727,618.287Z" style="fill:rgb(157,28,172);stroke:rgb(129,15,137);stroke-width:3px;"/>
                </g>
                <g transform="matrix(0.866397,0,0,0.964421,55.525,3.20877)">
                    <path d="M560.307,279.801C571.84,279.801 593.404,283.851 596.661,286.681C601.31,290.72 603.676,308.015 603.676,319.315C603.676,341.123 584.243,358.829 560.307,358.829C536.371,358.829 516.938,341.123 516.938,319.315C516.938,297.506 536.371,279.801 560.307,279.801Z" style="fill:rgb(157,28,172);stroke:rgb(129,15,137);stroke-width:3.27px;"/>
                </g>
            </g>
        </g>
        <g transform="matrix(5.15358,0,0,5.15358,-1043.44,-2679.49)">
            <g transform="matrix(36,0,0,36,243.765,675.529)">
                <path d="M0.648,-0.042C0.546,-0.002 0.454,0.018 0.372,0.018C0.291,0.018 0.227,-0.006 0.18,-0.055C0.132,-0.103 0.109,-0.17 0.109,-0.255C0.109,-0.336 0.129,-0.415 0.169,-0.491C0.209,-0.568 0.263,-0.628 0.329,-0.673C0.395,-0.718 0.474,-0.741 0.567,-0.741C0.631,-0.741 0.699,-0.732 0.77,-0.716L0.752,-0.626C0.682,-0.648 0.635,-0.659 0.61,-0.661C0.586,-0.663 0.567,-0.664 0.555,-0.664C0.491,-0.664 0.435,-0.647 0.386,-0.614C0.338,-0.58 0.298,-0.53 0.266,-0.464C0.234,-0.397 0.218,-0.331 0.218,-0.264C0.218,-0.202 0.235,-0.153 0.269,-0.118C0.303,-0.083 0.352,-0.065 0.415,-0.065C0.439,-0.065 0.466,-0.067 0.495,-0.072C0.525,-0.076 0.581,-0.093 0.665,-0.124L0.648,-0.042Z" style="fill:white;fill-rule:nonzero;stroke:white;stroke-width:0.01px;stroke-linecap:butt;stroke-linejoin:round;stroke-miterlimit:2;"/>
            </g>
            <g transform="matrix(36,0,0,36,268.216,675.529)">
                <path d="M0.263,0.012C0.204,0.012 0.16,-0.005 0.131,-0.039C0.102,-0.073 0.088,-0.116 0.088,-0.167C0.088,-0.23 0.103,-0.292 0.133,-0.353C0.163,-0.415 0.201,-0.462 0.246,-0.494C0.292,-0.526 0.345,-0.542 0.406,-0.542C0.467,-0.542 0.512,-0.525 0.54,-0.491C0.568,-0.457 0.582,-0.414 0.582,-0.364C0.582,-0.302 0.567,-0.24 0.537,-0.179C0.508,-0.118 0.47,-0.07 0.425,-0.037C0.38,-0.004 0.326,0.012 0.263,0.012ZM0.284,-0.06C0.338,-0.06 0.384,-0.089 0.422,-0.148C0.46,-0.207 0.479,-0.272 0.479,-0.344C0.479,-0.386 0.471,-0.418 0.455,-0.439C0.439,-0.46 0.415,-0.47 0.383,-0.47C0.331,-0.47 0.286,-0.441 0.248,-0.383C0.21,-0.324 0.19,-0.259 0.19,-0.187C0.19,-0.145 0.198,-0.114 0.215,-0.092C0.231,-0.071 0.254,-0.06 0.284,-0.06Z" style="fill:white;fill-rule:nonzero;stroke:white;stroke-width:0.01px;stroke-linecap:butt;stroke-linejoin:round;stroke-miterlimit:2;"/>
            </g>
            <g transform="matrix(36,0,0,36,288.607,675.529)">
                <path d="M0.096,-0L0.249,-0.771L0.346,-0.771L0.193,-0L0.096,-0Z" style="fill:white;fill-rule:nonzero;stroke:white;stroke-width:0.01px;stroke-linecap:butt;stroke-linejoin:round;stroke-miterlimit:2;"/>
            </g>
            <g transform="matrix(36,0,0,36,299.013,675.529)">
                <path d="M0.263,0.012C0.204,0.012 0.16,-0.005 0.131,-0.039C0.102,-0.073 0.088,-0.116 0.088,-0.167C0.088,-0.23 0.103,-0.292 0.133,-0.353C0.163,-0.415 0.201,-0.462 0.246,-0.494C0.292,-0.526 0.345,-0.542 0.406,-0.542C0.467,-0.542 0.512,-0.525 0.54,-0.491C0.568,-0.457 0.582,-0.414 0.582,-0.364C0.582,-0.302 0.567,-0.24 0.537,-0.179C0.508,-0.118 0.47,-0.07 0.425,-0.037C0.38,-0.004 0.326,0.012 0.263,0.012ZM0.284,-0.06C0.338,-0.06 0.384,-0.089 0.422,-0.148C0.46,-0.207 0.479,-0.272 0.479,-0.344C0.479,-0.386 0.471,-0.418 0.455,-0.439C0.439,-0.46 0.415,-0.47 0.383,-0.47C0.331,-0.47 0.286,-0.441 0.248,-0.383C0.21,-0.324 0.19,-0.259 0.19,-0.187C0.19,-0.145 0.198,-0.114 0.215,-0.092C0.231,-0.071 0.254,-0.06 0.284,-0.06Z" style="fill:white;fill-rule:nonzero;stroke:white;stroke-width:0.01px;stroke-linecap:butt;stroke-linejoin:round;stroke-miterlimit:2;"/>
            </g>
            <g transform="matrix(36,0,0,36,319.403,675.529)">
                <path d="M0.092,-0L0.236,-0.723L0.374,-0.723L0.458,-0.204L0.743,-0.723L0.879,-0.723L0.736,-0L0.641,-0L0.758,-0.593L0.471,-0.07L0.383,-0.07L0.298,-0.595L0.18,-0L0.092,-0Z" style="fill:white;fill-rule:nonzero;stroke:white;stroke-width:0.01px;stroke-linecap:butt;stroke-linejoin:round;stroke-miterlimit:2;"/>
            </g>
            <g transform="matrix(36,0,0,36,349.216,675.529)">
                <path d="M0.018,-0L0.433,-0.723L0.536,-0.723L0.676,-0L0.572,-0L0.535,-0.186L0.224,-0.186L0.118,-0L0.018,-0ZM0.268,-0.263L0.521,-0.263L0.454,-0.589L0.268,-0.263Z" style="fill:white;fill-rule:nonzero;stroke:white;stroke-width:0.01px;stroke-linecap:butt;stroke-linejoin:round;stroke-miterlimit:2;"/>
            </g>
            <g transform="matrix(36,0,0,36,373.931,675.529)">
                <path d="M0.502,-0.053C0.418,-0.01 0.339,0.012 0.265,0.012C0.209,0.012 0.166,-0.004 0.136,-0.037C0.106,-0.069 0.09,-0.114 0.09,-0.17C0.09,-0.231 0.104,-0.289 0.132,-0.347C0.16,-0.404 0.198,-0.45 0.246,-0.487C0.294,-0.524 0.347,-0.542 0.403,-0.542C0.442,-0.542 0.472,-0.533 0.493,-0.515C0.514,-0.496 0.524,-0.47 0.524,-0.436C0.524,-0.396 0.511,-0.359 0.486,-0.326C0.46,-0.292 0.422,-0.263 0.371,-0.24C0.321,-0.216 0.259,-0.202 0.187,-0.196C0.187,-0.151 0.197,-0.117 0.217,-0.096C0.236,-0.075 0.262,-0.064 0.293,-0.064C0.319,-0.064 0.352,-0.071 0.394,-0.084C0.436,-0.097 0.479,-0.118 0.521,-0.146L0.502,-0.053ZM0.196,-0.268C0.254,-0.274 0.299,-0.283 0.33,-0.296C0.361,-0.31 0.385,-0.328 0.404,-0.35C0.422,-0.372 0.431,-0.394 0.431,-0.414C0.431,-0.427 0.425,-0.439 0.415,-0.45C0.404,-0.462 0.391,-0.467 0.374,-0.467C0.352,-0.467 0.329,-0.46 0.307,-0.446C0.288,-0.434 0.272,-0.419 0.256,-0.401C0.244,-0.386 0.233,-0.37 0.224,-0.353C0.214,-0.335 0.205,-0.307 0.196,-0.268Z" style="fill:white;fill-rule:nonzero;stroke:white;stroke-width:0.01px;stroke-linecap:butt;stroke-linejoin:round;stroke-miterlimit:2;"/>
            </g>
            <g transform="matrix(36,0,0,36,392.985,675.529)">
                <path d="M0.096,-0L0.202,-0.53L0.298,-0.53L0.255,-0.313C0.294,-0.379 0.336,-0.433 0.382,-0.477C0.429,-0.521 0.476,-0.542 0.524,-0.542C0.549,-0.542 0.57,-0.535 0.586,-0.519C0.603,-0.503 0.611,-0.477 0.611,-0.442C0.611,-0.419 0.609,-0.398 0.606,-0.379L0.53,-0L0.434,-0L0.51,-0.383C0.511,-0.391 0.512,-0.4 0.512,-0.409C0.512,-0.42 0.509,-0.429 0.503,-0.436C0.497,-0.443 0.49,-0.446 0.481,-0.446C0.455,-0.446 0.423,-0.426 0.384,-0.385C0.345,-0.344 0.294,-0.278 0.23,-0.187L0.193,-0L0.096,-0Z" style="fill:white;fill-rule:nonzero;stroke:white;stroke-width:0.01px;stroke-linecap:butt;stroke-linejoin:round;stroke-miterlimit:2;"/>
            </g>
            <g transform="matrix(36,0,0,36,415.327,675.529)">
                <path d="M0.093,-0L0.237,-0.723L0.443,-0.723C0.511,-0.723 0.561,-0.709 0.594,-0.683C0.626,-0.656 0.642,-0.62 0.642,-0.574C0.642,-0.528 0.627,-0.482 0.597,-0.435C0.567,-0.387 0.527,-0.351 0.476,-0.326C0.425,-0.302 0.37,-0.289 0.312,-0.289L0.253,-0.289L0.195,-0L0.093,-0ZM0.268,-0.366L0.314,-0.366C0.387,-0.366 0.442,-0.387 0.479,-0.43C0.516,-0.472 0.535,-0.518 0.535,-0.565C0.535,-0.599 0.522,-0.621 0.497,-0.631C0.472,-0.641 0.435,-0.646 0.385,-0.646L0.324,-0.646L0.268,-0.366Z" style="fill:white;fill-rule:nonzero;stroke:white;stroke-width:0.01px;stroke-linecap:butt;stroke-linejoin:round;stroke-miterlimit:2;"/>
            </g>
            <g transform="matrix(36,0,0,36,436.034,675.529)">
                <path d="M0.018,-0L0.433,-0.723L0.536,-0.723L0.676,-0L0.572,-0L0.535,-0.186L0.224,-0.186L0.118,-0L0.018,-0ZM0.268,-0.263L0.521,-0.263L0.454,-0.589L0.268,-0.263Z" style="fill:white;fill-rule:nonzero;stroke:white;stroke-width:0.01px;stroke-linecap:butt;stroke-linejoin:round;stroke-miterlimit:2;"/>
            </g>
        </g>
        <g transform="matrix(1.47753,0,0,1.47753,-143.121,-548.414)">
            <g transform="matrix(36,0,0,36,263.529,972)">
                <path d="M0.373,0.018C0.294,0.018 0.23,-0.006 0.181,-0.054C0.133,-0.102 0.109,-0.169 0.109,-0.256C0.109,-0.339 0.128,-0.417 0.166,-0.492C0.205,-0.566 0.257,-0.626 0.323,-0.672C0.389,-0.718 0.464,-0.741 0.547,-0.741C0.629,-0.741 0.694,-0.717 0.742,-0.668C0.79,-0.62 0.814,-0.553 0.814,-0.467C0.814,-0.383 0.794,-0.304 0.755,-0.229C0.716,-0.154 0.664,-0.094 0.598,-0.049C0.533,-0.004 0.458,0.018 0.373,0.018ZM0.392,-0.059C0.446,-0.059 0.496,-0.076 0.543,-0.111C0.59,-0.145 0.628,-0.195 0.659,-0.261C0.69,-0.326 0.705,-0.393 0.705,-0.46C0.705,-0.519 0.69,-0.567 0.659,-0.606C0.629,-0.645 0.585,-0.664 0.529,-0.664C0.477,-0.664 0.428,-0.647 0.381,-0.613C0.334,-0.578 0.295,-0.528 0.264,-0.463C0.233,-0.397 0.218,-0.33 0.218,-0.262C0.218,-0.203 0.233,-0.155 0.264,-0.116C0.295,-0.078 0.338,-0.059 0.392,-0.059Z" style="fill:white;fill-rule:nonzero;stroke:white;stroke-width:0.04px;stroke-linecap:butt;stroke-linejoin:round;stroke-miterlimit:2;"/>
            </g>
            <g transform="matrix(36,0,0,36,291.496,972)">
                <path d="M0.599,-0.53L0.494,-0L0.397,-0L0.44,-0.217C0.405,-0.152 0.366,-0.097 0.324,-0.053C0.281,-0.01 0.238,0.012 0.195,0.012C0.171,0.012 0.152,0.004 0.137,-0.011C0.122,-0.027 0.114,-0.053 0.114,-0.09C0.114,-0.111 0.116,-0.132 0.12,-0.15L0.195,-0.53L0.292,-0.53L0.216,-0.148C0.214,-0.14 0.213,-0.131 0.213,-0.122C0.213,-0.11 0.216,-0.101 0.221,-0.094C0.226,-0.087 0.233,-0.084 0.241,-0.084C0.265,-0.084 0.295,-0.106 0.331,-0.15C0.367,-0.193 0.411,-0.258 0.465,-0.343L0.502,-0.53L0.599,-0.53Z" style="fill:white;fill-rule:nonzero;stroke:white;stroke-width:0.04px;stroke-linecap:butt;stroke-linejoin:round;stroke-miterlimit:2;"/>
            </g>
            <g transform="matrix(36,0,0,36,313.838,972)">
                <path d="M0.415,-0L0.458,-0.217C0.417,-0.148 0.372,-0.092 0.323,-0.05C0.274,-0.009 0.228,0.012 0.186,0.012C0.155,0.012 0.13,-0.001 0.112,-0.027C0.094,-0.054 0.084,-0.083 0.084,-0.116C0.084,-0.181 0.103,-0.248 0.139,-0.319C0.175,-0.39 0.22,-0.445 0.272,-0.484C0.325,-0.523 0.381,-0.542 0.441,-0.542C0.464,-0.542 0.49,-0.538 0.52,-0.53L0.568,-0.771L0.664,-0.771L0.512,-0L0.415,-0ZM0.481,-0.332L0.505,-0.455C0.482,-0.467 0.457,-0.473 0.431,-0.473C0.394,-0.473 0.357,-0.458 0.319,-0.427C0.281,-0.397 0.249,-0.352 0.224,-0.293C0.2,-0.235 0.187,-0.182 0.187,-0.134C0.187,-0.119 0.19,-0.107 0.197,-0.097C0.204,-0.087 0.214,-0.082 0.227,-0.082C0.275,-0.082 0.36,-0.165 0.481,-0.332Z" style="fill:white;fill-rule:nonzero;stroke:white;stroke-width:0.04px;stroke-linecap:butt;stroke-linejoin:round;stroke-miterlimit:2;"/>
            </g>
            <g transform="matrix(36,0,0,36,335.74,972)">
                <path d="M0.502,-0.053C0.418,-0.01 0.339,0.012 0.265,0.012C0.209,0.012 0.166,-0.004 0.136,-0.037C0.106,-0.069 0.09,-0.114 0.09,-0.17C0.09,-0.231 0.104,-0.289 0.132,-0.347C0.16,-0.404 0.198,-0.45 0.246,-0.487C0.294,-0.524 0.347,-0.542 0.403,-0.542C0.442,-0.542 0.472,-0.533 0.493,-0.515C0.514,-0.496 0.524,-0.47 0.524,-0.436C0.524,-0.396 0.511,-0.359 0.486,-0.326C0.46,-0.292 0.422,-0.263 0.371,-0.24C0.321,-0.216 0.259,-0.202 0.187,-0.196C0.187,-0.151 0.197,-0.117 0.217,-0.096C0.236,-0.075 0.262,-0.064 0.293,-0.064C0.319,-0.064 0.352,-0.071 0.394,-0.084C0.436,-0.097 0.479,-0.118 0.521,-0.146L0.502,-0.053ZM0.196,-0.268C0.254,-0.274 0.299,-0.283 0.33,-0.296C0.361,-0.31 0.385,-0.328 0.404,-0.35C0.422,-0.372 0.431,-0.394 0.431,-0.414C0.431,-0.427 0.425,-0.439 0.415,-0.45C0.404,-0.462 0.391,-0.467 0.374,-0.467C0.352,-0.467 0.329,-0.46 0.307,-0.446C0.288,-0.434 0.272,-0.419 0.256,-0.401C0.244,-0.386 0.233,-0.37 0.224,-0.353C0.214,-0.335 0.205,-0.307 0.196,-0.268Z" style="fill:white;fill-rule:nonzero;stroke:white;stroke-width:0.04px;stroke-linecap:butt;stroke-linejoin:round;stroke-miterlimit:2;"/>
            </g>
            <g transform="matrix(36,0,0,36,354.795,972)">
                <path d="M0.096,-0L0.202,-0.53L0.298,-0.53L0.255,-0.313C0.28,-0.357 0.31,-0.398 0.344,-0.435C0.378,-0.473 0.409,-0.5 0.436,-0.517C0.463,-0.534 0.493,-0.542 0.525,-0.542C0.533,-0.542 0.541,-0.542 0.55,-0.541L0.529,-0.436C0.515,-0.44 0.502,-0.443 0.492,-0.443C0.46,-0.443 0.427,-0.426 0.392,-0.391C0.357,-0.357 0.303,-0.288 0.23,-0.187L0.193,-0L0.096,-0Z" style="fill:white;fill-rule:nonzero;stroke:white;stroke-width:0.04px;stroke-linecap:butt;stroke-linejoin:round;stroke-miterlimit:2;"/>
            </g>
            <g transform="matrix(36,0,0,36,371.986,972)">
                <path d="M0.096,-0L0.202,-0.53L0.298,-0.53L0.255,-0.313C0.28,-0.357 0.31,-0.398 0.344,-0.435C0.378,-0.473 0.409,-0.5 0.436,-0.517C0.463,-0.534 0.493,-0.542 0.525,-0.542C0.533,-0.542 0.541,-0.542 0.55,-0.541L0.529,-0.436C0.515,-0.44 0.502,-0.443 0.492,-0.443C0.46,-0.443 0.427,-0.426 0.392,-0.391C0.357,-0.357 0.303,-0.288 0.23,-0.187L0.193,-0L0.096,-0Z" style="fill:white;fill-rule:nonzero;stroke:white;stroke-width:0.04px;stroke-linecap:butt;stroke-linejoin:round;stroke-miterlimit:2;"/>
            </g>
            <g transform="matrix(36,0,0,36,389.178,972)">
                <path d="M0.415,-0L0.458,-0.217C0.417,-0.148 0.372,-0.092 0.323,-0.051C0.274,-0.009 0.228,0.012 0.186,0.012C0.155,0.012 0.13,-0.001 0.112,-0.027C0.094,-0.054 0.084,-0.083 0.084,-0.116C0.084,-0.181 0.103,-0.248 0.139,-0.319C0.175,-0.39 0.219,-0.445 0.272,-0.484C0.325,-0.523 0.381,-0.542 0.441,-0.542C0.452,-0.542 0.464,-0.542 0.478,-0.54C0.491,-0.538 0.505,-0.535 0.52,-0.53L0.616,-0.53L0.512,-0L0.415,-0ZM0.481,-0.332L0.505,-0.455C0.494,-0.461 0.482,-0.465 0.469,-0.469C0.457,-0.472 0.444,-0.473 0.431,-0.473C0.394,-0.473 0.357,-0.458 0.319,-0.427C0.281,-0.397 0.249,-0.352 0.224,-0.293C0.2,-0.235 0.187,-0.182 0.187,-0.134C0.187,-0.119 0.19,-0.107 0.197,-0.097C0.204,-0.087 0.214,-0.082 0.227,-0.082C0.275,-0.082 0.36,-0.165 0.481,-0.332Z" style="fill:white;fill-rule:nonzero;stroke:white;stroke-width:0.04px;stroke-linecap:butt;stroke-linejoin:round;stroke-miterlimit:2;"/>
            </g>
            <g transform="matrix(36,0,0,36,411.08,972)">
                <path d="M0.415,-0L0.458,-0.217C0.417,-0.148 0.372,-0.092 0.323,-0.051C0.274,-0.009 0.228,0.012 0.186,0.012C0.155,0.012 0.13,-0.001 0.112,-0.027C0.094,-0.054 0.084,-0.083 0.084,-0.116C0.084,-0.181 0.103,-0.248 0.139,-0.319C0.175,-0.39 0.219,-0.445 0.272,-0.484C0.325,-0.523 0.381,-0.542 0.441,-0.542C0.452,-0.542 0.464,-0.542 0.478,-0.54C0.491,-0.538 0.505,-0.535 0.52,-0.53L0.616,-0.53L0.512,-0L0.415,-0ZM0.481,-0.332L0.505,-0.455C0.494,-0.461 0.482,-0.465 0.469,-0.469C0.457,-0.472 0.444,-0.473 0.431,-0.473C0.394,-0.473 0.357,-0.458 0.319,-0.427C0.281,-0.397 0.249,-0.352 0.224,-0.293C0.2,-0.235 0.187,-0.182 0.187,-0.134C0.187,-0.119 0.19,-0.107 0.197,-0.097C0.204,-0.087 0.214,-0.082 0.227,-0.082C0.275,-0.082 0.36,-0.165 0.481,-0.332Z" style="fill:white;fill-rule:nonzero;stroke:white;stroke-width:0.04px;stroke-linecap:butt;stroke-linejoin:round;stroke-miterlimit:2;"/>
            </g>
            <g transform="matrix(36,0,0,36,432.983,972)">
                <path d="M0.415,-0L0.458,-0.217C0.417,-0.148 0.372,-0.092 0.323,-0.05C0.274,-0.009 0.228,0.012 0.186,0.012C0.155,0.012 0.13,-0.001 0.112,-0.027C0.094,-0.054 0.084,-0.083 0.084,-0.116C0.084,-0.181 0.103,-0.248 0.139,-0.319C0.175,-0.39 0.22,-0.445 0.272,-0.484C0.325,-0.523 0.381,-0.542 0.441,-0.542C0.464,-0.542 0.49,-0.538 0.52,-0.53L0.568,-0.771L0.664,-0.771L0.512,-0L0.415,-0ZM0.481,-0.332L0.505,-0.455C0.482,-0.467 0.457,-0.473 0.431,-0.473C0.394,-0.473 0.357,-0.458 0.319,-0.427C0.281,-0.397 0.249,-0.352 0.224,-0.293C0.2,-0.235 0.187,-0.182 0.187,-0.134C0.187,-0.119 0.19,-0.107 0.197,-0.097C0.204,-0.087 0.214,-0.082 0.227,-0.082C0.275,-0.082 0.36,-0.165 0.481,-0.332Z" style="fill:white;fill-rule:nonzero;stroke:white;stroke-width:0.04px;stroke-linecap:butt;stroke-linejoin:round;stroke-miterlimit:2;"/>
            </g>
            <g transform="matrix(36,0,0,36,466.276,972)">
                <path d="M0.093,-0L0.237,-0.723L0.392,-0.723C0.49,-0.723 0.552,-0.708 0.58,-0.68C0.607,-0.651 0.62,-0.62 0.62,-0.587C0.62,-0.56 0.613,-0.533 0.6,-0.506C0.586,-0.479 0.567,-0.454 0.543,-0.433C0.519,-0.412 0.484,-0.393 0.44,-0.377C0.476,-0.365 0.503,-0.35 0.523,-0.333C0.542,-0.315 0.557,-0.296 0.566,-0.275C0.576,-0.254 0.581,-0.231 0.581,-0.207C0.581,-0.157 0.56,-0.109 0.519,-0.066C0.478,-0.022 0.409,-0 0.314,-0L0.093,-0ZM0.211,-0.077L0.278,-0.077C0.354,-0.077 0.406,-0.09 0.434,-0.117C0.462,-0.144 0.476,-0.177 0.476,-0.215C0.476,-0.256 0.456,-0.287 0.417,-0.309C0.378,-0.33 0.334,-0.341 0.286,-0.341L0.263,-0.341L0.211,-0.077ZM0.276,-0.407L0.321,-0.407C0.378,-0.407 0.424,-0.424 0.46,-0.459C0.497,-0.493 0.515,-0.529 0.515,-0.567C0.515,-0.583 0.51,-0.597 0.502,-0.609C0.494,-0.621 0.481,-0.631 0.463,-0.637C0.445,-0.643 0.408,-0.646 0.354,-0.646L0.323,-0.646L0.276,-0.407Z" style="fill:white;fill-rule:nonzero;stroke:white;stroke-width:0.04px;stroke-linecap:butt;stroke-linejoin:round;stroke-miterlimit:2;"/>
            </g>
            <g transform="matrix(36,0,0,36,487.633,972)">
                <path d="M0.415,-0L0.458,-0.217C0.417,-0.148 0.372,-0.092 0.323,-0.051C0.274,-0.009 0.228,0.012 0.186,0.012C0.155,0.012 0.13,-0.001 0.112,-0.027C0.094,-0.054 0.084,-0.083 0.084,-0.116C0.084,-0.181 0.103,-0.248 0.139,-0.319C0.175,-0.39 0.219,-0.445 0.272,-0.484C0.325,-0.523 0.381,-0.542 0.441,-0.542C0.452,-0.542 0.464,-0.542 0.478,-0.54C0.491,-0.538 0.505,-0.535 0.52,-0.53L0.616,-0.53L0.512,-0L0.415,-0ZM0.481,-0.332L0.505,-0.455C0.494,-0.461 0.482,-0.465 0.469,-0.469C0.457,-0.472 0.444,-0.473 0.431,-0.473C0.394,-0.473 0.357,-0.458 0.319,-0.427C0.281,-0.397 0.249,-0.352 0.224,-0.293C0.2,-0.235 0.187,-0.182 0.187,-0.134C0.187,-0.119 0.19,-0.107 0.197,-0.097C0.204,-0.087 0.214,-0.082 0.227,-0.082C0.275,-0.082 0.36,-0.165 0.481,-0.332Z" style="fill:white;fill-rule:nonzero;stroke:white;stroke-width:0.04px;stroke-linecap:butt;stroke-linejoin:round;stroke-miterlimit:2;"/>
            </g>
            <g transform="matrix(36,0,0,36,509.535,972)">
                <path d="M0.076,-0.028L0.092,-0.109C0.159,-0.076 0.215,-0.06 0.259,-0.06C0.286,-0.06 0.307,-0.066 0.323,-0.079C0.338,-0.092 0.346,-0.108 0.346,-0.129C0.346,-0.141 0.343,-0.153 0.336,-0.163C0.33,-0.173 0.318,-0.188 0.301,-0.206L0.256,-0.251C0.219,-0.29 0.195,-0.319 0.186,-0.339C0.176,-0.359 0.171,-0.379 0.171,-0.398C0.171,-0.432 0.186,-0.464 0.216,-0.496C0.246,-0.527 0.292,-0.542 0.354,-0.542C0.372,-0.542 0.391,-0.541 0.411,-0.538C0.431,-0.536 0.461,-0.527 0.502,-0.512L0.486,-0.431C0.446,-0.45 0.417,-0.461 0.399,-0.465C0.382,-0.468 0.365,-0.47 0.349,-0.47C0.321,-0.47 0.3,-0.464 0.287,-0.452C0.274,-0.44 0.267,-0.425 0.267,-0.408C0.267,-0.397 0.27,-0.386 0.276,-0.376C0.282,-0.365 0.296,-0.348 0.32,-0.325L0.368,-0.276C0.395,-0.249 0.414,-0.225 0.425,-0.204C0.436,-0.183 0.442,-0.16 0.442,-0.136C0.442,-0.092 0.425,-0.056 0.391,-0.029C0.356,-0.001 0.31,0.012 0.251,0.012C0.235,0.012 0.217,0.011 0.198,0.008C0.18,0.005 0.162,0.002 0.146,-0.003C0.129,-0.008 0.105,-0.016 0.076,-0.028Z" style="fill:white;fill-rule:nonzero;stroke:white;stroke-width:0.04px;stroke-linecap:butt;stroke-linejoin:round;stroke-miterlimit:2;"/>
            </g>
            <g transform="matrix(36,0,0,36,527.131,972)">
                <path d="M0.096,-0L0.202,-0.53L0.299,-0.53L0.193,-0L0.096,-0ZM0.221,-0.626L0.24,-0.723L0.337,-0.723L0.318,-0.626L0.221,-0.626Z" style="fill:white;fill-rule:nonzero;stroke:white;stroke-width:0.04px;stroke-linecap:butt;stroke-linejoin:round;stroke-miterlimit:2;"/>
            </g>
            <g transform="matrix(36,0,0,36,537.537,972)">
                <path d="M0.076,-0.028L0.092,-0.109C0.159,-0.076 0.215,-0.06 0.259,-0.06C0.286,-0.06 0.307,-0.066 0.323,-0.079C0.338,-0.092 0.346,-0.108 0.346,-0.129C0.346,-0.141 0.343,-0.153 0.336,-0.163C0.33,-0.173 0.318,-0.188 0.301,-0.206L0.256,-0.251C0.219,-0.29 0.195,-0.319 0.186,-0.339C0.176,-0.359 0.171,-0.379 0.171,-0.398C0.171,-0.432 0.186,-0.464 0.216,-0.496C0.246,-0.527 0.292,-0.542 0.354,-0.542C0.372,-0.542 0.391,-0.541 0.411,-0.538C0.431,-0.536 0.461,-0.527 0.502,-0.512L0.486,-0.431C0.446,-0.45 0.417,-0.461 0.399,-0.465C0.382,-0.468 0.365,-0.47 0.349,-0.47C0.321,-0.47 0.3,-0.464 0.287,-0.452C0.274,-0.44 0.267,-0.425 0.267,-0.408C0.267,-0.397 0.27,-0.386 0.276,-0.376C0.282,-0.365 0.296,-0.348 0.32,-0.325L0.368,-0.276C0.395,-0.249 0.414,-0.225 0.425,-0.204C0.436,-0.183 0.442,-0.16 0.442,-0.136C0.442,-0.092 0.425,-0.056 0.391,-0.029C0.356,-0.001 0.31,0.012 0.251,0.012C0.235,0.012 0.217,0.011 0.198,0.008C0.18,0.005 0.162,0.002 0.146,-0.003C0.129,-0.008 0.105,-0.016 0.076,-0.028Z" style="fill:white;fill-rule:nonzero;stroke:white;stroke-width:0.04px;stroke-linecap:butt;stroke-linejoin:round;stroke-miterlimit:2;"/>
            </g>
            <g transform="matrix(36,0,0,36,555.133,972)">
                <path d="M0.076,-0.028L0.092,-0.109C0.159,-0.076 0.215,-0.06 0.259,-0.06C0.286,-0.06 0.307,-0.066 0.323,-0.079C0.338,-0.092 0.346,-0.108 0.346,-0.129C0.346,-0.141 0.343,-0.153 0.336,-0.163C0.33,-0.173 0.318,-0.188 0.301,-0.206L0.256,-0.251C0.219,-0.29 0.195,-0.319 0.186,-0.339C0.176,-0.359 0.171,-0.379 0.171,-0.398C0.171,-0.432 0.186,-0.464 0.216,-0.496C0.246,-0.527 0.292,-0.542 0.354,-0.542C0.372,-0.542 0.391,-0.541 0.411,-0.538C0.431,-0.536 0.461,-0.527 0.502,-0.512L0.486,-0.431C0.446,-0.45 0.417,-0.461 0.399,-0.465C0.382,-0.468 0.365,-0.47 0.349,-0.47C0.321,-0.47 0.3,-0.464 0.287,-0.452C0.274,-0.44 0.267,-0.425 0.267,-0.408C0.267,-0.397 0.27,-0.386 0.276,-0.376C0.282,-0.365 0.296,-0.348 0.32,-0.325L0.368,-0.276C0.395,-0.249 0.414,-0.225 0.425,-0.204C0.436,-0.183 0.442,-0.16 0.442,-0.136C0.442,-0.092 0.425,-0.056 0.391,-0.029C0.356,-0.001 0.31,0.012 0.251,0.012C0.235,0.012 0.217,0.011 0.198,0.008C0.18,0.005 0.162,0.002 0.146,-0.003C0.129,-0.008 0.105,-0.016 0.076,-0.028Z" style="fill:white;fill-rule:nonzero;stroke:white;stroke-width:0.04px;stroke-linecap:butt;stroke-linejoin:round;stroke-miterlimit:2;"/>
            </g>
            <g transform="matrix(36,0,0,36,572.729,972)">
                <path d="M0.459,-0.036C0.385,-0.004 0.32,0.012 0.263,0.012C0.208,0.012 0.165,-0.004 0.135,-0.036C0.105,-0.069 0.09,-0.115 0.09,-0.174C0.09,-0.238 0.106,-0.297 0.137,-0.354C0.168,-0.41 0.209,-0.456 0.261,-0.49C0.312,-0.525 0.365,-0.542 0.42,-0.542C0.457,-0.542 0.498,-0.537 0.544,-0.525L0.528,-0.448C0.49,-0.463 0.453,-0.47 0.418,-0.47C0.379,-0.47 0.342,-0.458 0.308,-0.435C0.275,-0.411 0.247,-0.375 0.225,-0.327C0.204,-0.28 0.193,-0.231 0.193,-0.18C0.193,-0.141 0.202,-0.112 0.221,-0.095C0.24,-0.077 0.263,-0.068 0.291,-0.068C0.305,-0.068 0.321,-0.071 0.341,-0.075C0.361,-0.08 0.382,-0.086 0.405,-0.094C0.428,-0.102 0.452,-0.113 0.478,-0.128L0.459,-0.036Z" style="fill:white;fill-rule:nonzero;stroke:white;stroke-width:0.04px;stroke-linecap:butt;stroke-linejoin:round;stroke-miterlimit:2;"/>
            </g>
            <g transform="matrix(36,0,0,36,590.852,972)">
                <path d="M0.096,-0L0.249,-0.771L0.346,-0.771L0.255,-0.314C0.294,-0.379 0.336,-0.433 0.382,-0.477C0.429,-0.521 0.476,-0.542 0.524,-0.542C0.549,-0.542 0.57,-0.535 0.586,-0.519C0.603,-0.503 0.611,-0.477 0.611,-0.442C0.611,-0.419 0.609,-0.398 0.606,-0.379L0.53,-0L0.434,-0L0.51,-0.383C0.511,-0.391 0.512,-0.4 0.512,-0.409C0.512,-0.42 0.509,-0.429 0.503,-0.436C0.497,-0.443 0.49,-0.446 0.481,-0.446C0.455,-0.446 0.423,-0.426 0.384,-0.385C0.346,-0.344 0.294,-0.278 0.23,-0.187L0.193,-0L0.096,-0Z" style="fill:white;fill-rule:nonzero;stroke:white;stroke-width:0.04px;stroke-linecap:butt;stroke-linejoin:round;stroke-miterlimit:2;"/>
            </g>
            <g transform="matrix(36,0,0,36,613.193,972)">
                <path d="M0.263,0.012C0.204,0.012 0.16,-0.005 0.131,-0.039C0.102,-0.073 0.088,-0.116 0.088,-0.167C0.088,-0.23 0.103,-0.292 0.133,-0.353C0.163,-0.415 0.201,-0.462 0.246,-0.494C0.292,-0.526 0.345,-0.542 0.406,-0.542C0.467,-0.542 0.512,-0.525 0.54,-0.491C0.568,-0.457 0.582,-0.414 0.582,-0.364C0.582,-0.302 0.567,-0.24 0.537,-0.179C0.508,-0.118 0.47,-0.07 0.425,-0.037C0.38,-0.004 0.326,0.012 0.263,0.012ZM0.284,-0.06C0.338,-0.06 0.384,-0.089 0.422,-0.148C0.46,-0.207 0.479,-0.272 0.479,-0.344C0.479,-0.386 0.471,-0.418 0.455,-0.439C0.439,-0.46 0.415,-0.47 0.383,-0.47C0.331,-0.47 0.286,-0.441 0.248,-0.383C0.21,-0.324 0.19,-0.259 0.19,-0.187C0.19,-0.145 0.198,-0.114 0.215,-0.092C0.231,-0.071 0.254,-0.06 0.284,-0.06Z" style="fill:white;fill-rule:nonzero;stroke:white;stroke-width:0.04px;stroke-linecap:butt;stroke-linejoin:round;stroke-miterlimit:2;"/>
            </g>
            <g transform="matrix(36,0,0,36,633.584,972)">
                <path d="M0.263,0.012C0.204,0.012 0.16,-0.005 0.131,-0.039C0.102,-0.073 0.088,-0.116 0.088,-0.167C0.088,-0.23 0.103,-0.292 0.133,-0.353C0.163,-0.415 0.201,-0.462 0.246,-0.494C0.292,-0.526 0.345,-0.542 0.406,-0.542C0.467,-0.542 0.512,-0.525 0.54,-0.491C0.568,-0.457 0.582,-0.414 0.582,-0.364C0.582,-0.302 0.567,-0.24 0.537,-0.179C0.508,-0.118 0.47,-0.07 0.425,-0.037C0.38,-0.004 0.326,0.012 0.263,0.012ZM0.284,-0.06C0.338,-0.06 0.384,-0.089 0.422,-0.148C0.46,-0.207 0.479,-0.272 0.479,-0.344C0.479,-0.386 0.471,-0.418 0.455,-0.439C0.439,-0.46 0.415,-0.47 0.383,-0.47C0.331,-0.47 0.286,-0.441 0.248,-0.383C0.21,-0.324 0.19,-0.259 0.19,-0.187C0.19,-0.145 0.198,-0.114 0.215,-0.092C0.231,-0.071 0.254,-0.06 0.284,-0.06Z" style="fill:white;fill-rule:nonzero;stroke:white;stroke-width:0.04px;stroke-linecap:butt;stroke-linejoin:round;stroke-miterlimit:2;"/>
            </g>
            <g transform="matrix(36,0,0,36,653.975,972)">
                <path d="M0.096,-0L0.249,-0.771L0.346,-0.771L0.193,-0L0.096,-0Z" style="fill:white;fill-rule:nonzero;stroke:white;stroke-width:0.04px;stroke-linecap:butt;stroke-linejoin:round;stroke-miterlimit:2;"/>
            </g>
            <g transform="matrix(36,0,0,36,675.772,972)">
                <path d="M0.064,-0.015L0.082,-0.104C0.126,-0.086 0.162,-0.073 0.189,-0.067C0.216,-0.062 0.243,-0.059 0.27,-0.059C0.323,-0.059 0.364,-0.071 0.391,-0.096C0.419,-0.121 0.433,-0.151 0.433,-0.186C0.433,-0.209 0.426,-0.23 0.414,-0.249C0.401,-0.267 0.377,-0.291 0.341,-0.32L0.298,-0.354C0.247,-0.395 0.215,-0.428 0.201,-0.453C0.188,-0.478 0.181,-0.505 0.181,-0.535C0.181,-0.588 0.203,-0.636 0.246,-0.678C0.289,-0.72 0.352,-0.741 0.437,-0.741C0.495,-0.741 0.558,-0.73 0.625,-0.709L0.607,-0.623C0.54,-0.65 0.481,-0.664 0.429,-0.664C0.387,-0.664 0.352,-0.654 0.325,-0.634C0.297,-0.614 0.284,-0.586 0.284,-0.552C0.284,-0.53 0.29,-0.51 0.302,-0.494C0.313,-0.478 0.339,-0.454 0.378,-0.422L0.423,-0.386C0.461,-0.356 0.489,-0.326 0.508,-0.297C0.527,-0.268 0.536,-0.235 0.536,-0.199C0.536,-0.141 0.513,-0.091 0.467,-0.047C0.42,-0.004 0.348,0.018 0.249,0.018C0.221,0.018 0.195,0.016 0.171,0.013C0.147,0.01 0.111,0 0.064,-0.015Z" style="fill:white;fill-rule:nonzero;stroke:white;stroke-width:0.04px;stroke-linecap:butt;stroke-linejoin:round;stroke-miterlimit:2;"/>
            </g>
            <g transform="matrix(36,0,0,36,695.688,972)">
                <path d="M0.096,-0L0.202,-0.53L0.299,-0.53L0.193,-0L0.096,-0ZM0.221,-0.626L0.24,-0.723L0.337,-0.723L0.318,-0.626L0.221,-0.626Z" style="fill:white;fill-rule:nonzero;stroke:white;stroke-width:0.04px;stroke-linecap:butt;stroke-linejoin:round;stroke-miterlimit:2;"/>
            </g>
            <g transform="matrix(36,0,0,36,706.094,972)">
                <path d="M0.096,-0L0.202,-0.53L0.298,-0.53L0.255,-0.313C0.294,-0.379 0.336,-0.433 0.382,-0.477C0.429,-0.521 0.476,-0.542 0.524,-0.542C0.549,-0.542 0.57,-0.535 0.586,-0.519C0.603,-0.503 0.611,-0.477 0.611,-0.442C0.611,-0.419 0.609,-0.398 0.606,-0.379L0.53,-0L0.434,-0L0.51,-0.383C0.511,-0.391 0.512,-0.4 0.512,-0.409C0.512,-0.42 0.509,-0.429 0.503,-0.436C0.497,-0.443 0.49,-0.446 0.481,-0.446C0.455,-0.446 0.423,-0.426 0.384,-0.385C0.345,-0.344 0.294,-0.278 0.23,-0.187L0.193,-0L0.096,-0Z" style="fill:white;fill-rule:nonzero;stroke:white;stroke-width:0.04px;stroke-linecap:butt;stroke-linejoin:round;stroke-miterlimit:2;"/>
            </g>
            <g transform="matrix(36,0,0,36,728.436,972)">
                <path d="M0.349,0.002C0.326,0.009 0.305,0.012 0.285,0.012C0.24,0.012 0.205,0.002 0.18,-0.02C0.156,-0.041 0.144,-0.068 0.144,-0.1C0.144,-0.121 0.147,-0.146 0.153,-0.177L0.209,-0.458L0.129,-0.458L0.144,-0.53L0.223,-0.53L0.242,-0.626L0.341,-0.638L0.319,-0.53L0.455,-0.53L0.439,-0.458L0.305,-0.458L0.247,-0.166C0.242,-0.139 0.239,-0.122 0.239,-0.113C0.239,-0.099 0.244,-0.087 0.253,-0.076C0.263,-0.065 0.28,-0.06 0.306,-0.06C0.322,-0.06 0.341,-0.063 0.363,-0.07L0.349,0.002Z" style="fill:white;fill-rule:nonzero;stroke:white;stroke-width:0.04px;stroke-linecap:butt;stroke-linejoin:round;stroke-miterlimit:2;"/>
            </g>
            <g transform="matrix(36,0,0,36,742.217,972)">
                <path d="M0.101,-0.265L0.115,-0.337L0.332,-0.337L0.318,-0.265L0.101,-0.265Z" style="fill:white;fill-rule:nonzero;stroke:white;stroke-width:0.04px;stroke-linecap:butt;stroke-linejoin:round;stroke-miterlimit:2;"/>
            </g>
            <g transform="matrix(36,0,0,36,753.502,972)">
                <path d="M-0.026,0.128L-0.009,0.042C0.031,0.058 0.067,0.065 0.101,0.065C0.163,0.065 0.202,0.02 0.22,-0.07L0.35,-0.723L0.452,-0.723L0.337,-0.143C0.319,-0.053 0.298,0.01 0.275,0.043C0.252,0.076 0.224,0.102 0.192,0.119C0.159,0.136 0.12,0.145 0.074,0.145C0.051,0.145 0.018,0.139 -0.026,0.128Z" style="fill:white;fill-rule:nonzero;stroke:white;stroke-width:0.04px;stroke-linecap:butt;stroke-linejoin:round;stroke-miterlimit:2;"/>
            </g>
            <g transform="matrix(36,0,0,36,768.18,972)">
                <path d="M0.263,0.012C0.204,0.012 0.16,-0.005 0.131,-0.039C0.102,-0.073 0.088,-0.116 0.088,-0.167C0.088,-0.23 0.103,-0.292 0.133,-0.353C0.163,-0.415 0.201,-0.462 0.246,-0.494C0.292,-0.526 0.345,-0.542 0.406,-0.542C0.467,-0.542 0.512,-0.525 0.54,-0.491C0.568,-0.457 0.582,-0.414 0.582,-0.364C0.582,-0.302 0.567,-0.24 0.537,-0.179C0.508,-0.118 0.47,-0.07 0.425,-0.037C0.38,-0.004 0.326,0.012 0.263,0.012ZM0.284,-0.06C0.338,-0.06 0.384,-0.089 0.422,-0.148C0.46,-0.207 0.479,-0.272 0.479,-0.344C0.479,-0.386 0.471,-0.418 0.455,-0.439C0.439,-0.46 0.415,-0.47 0.383,-0.47C0.331,-0.47 0.286,-0.441 0.248,-0.383C0.21,-0.324 0.19,-0.259 0.19,-0.187C0.19,-0.145 0.198,-0.114 0.215,-0.092C0.231,-0.071 0.254,-0.06 0.284,-0.06Z" style="fill:white;fill-rule:nonzero;stroke:white;stroke-width:0.04px;stroke-linecap:butt;stroke-linejoin:round;stroke-miterlimit:2;"/>
            </g>
            <g transform="matrix(36,0,0,36,788.57,972)">
                <path d="M0.054,-0L0.069,-0.072L0.434,-0.458L0.154,-0.458L0.169,-0.53L0.573,-0.53L0.559,-0.458L0.193,-0.072L0.508,-0.072L0.494,-0L0.054,-0Z" style="fill:white;fill-rule:nonzero;stroke:white;stroke-width:0.04px;stroke-linecap:butt;stroke-linejoin:round;stroke-miterlimit:2;"/>
            </g>
            <g transform="matrix(36,0,0,36,807.871,972)">
                <path d="M0.502,-0.053C0.418,-0.01 0.339,0.012 0.265,0.012C0.209,0.012 0.166,-0.004 0.136,-0.037C0.106,-0.069 0.09,-0.114 0.09,-0.17C0.09,-0.231 0.104,-0.289 0.132,-0.347C0.16,-0.404 0.198,-0.45 0.246,-0.487C0.294,-0.524 0.347,-0.542 0.403,-0.542C0.442,-0.542 0.472,-0.533 0.493,-0.515C0.514,-0.496 0.524,-0.47 0.524,-0.436C0.524,-0.396 0.511,-0.359 0.486,-0.326C0.46,-0.292 0.422,-0.263 0.371,-0.24C0.321,-0.216 0.259,-0.202 0.187,-0.196C0.187,-0.151 0.197,-0.117 0.217,-0.096C0.236,-0.075 0.262,-0.064 0.293,-0.064C0.319,-0.064 0.352,-0.071 0.394,-0.084C0.436,-0.097 0.479,-0.118 0.521,-0.146L0.502,-0.053ZM0.196,-0.268C0.254,-0.274 0.299,-0.283 0.33,-0.296C0.361,-0.31 0.385,-0.328 0.404,-0.35C0.422,-0.372 0.431,-0.394 0.431,-0.414C0.431,-0.427 0.425,-0.439 0.415,-0.45C0.404,-0.462 0.391,-0.467 0.374,-0.467C0.352,-0.467 0.329,-0.46 0.307,-0.446C0.288,-0.434 0.272,-0.419 0.256,-0.401C0.244,-0.386 0.233,-0.37 0.224,-0.353C0.214,-0.335 0.205,-0.307 0.196,-0.268Z" style="fill:white;fill-rule:nonzero;stroke:white;stroke-width:0.04px;stroke-linecap:butt;stroke-linejoin:round;stroke-miterlimit:2;"/>
            </g>
            <g transform="matrix(36,0,0,36,826.926,972)">
                <path d="M0.079,0.193L0.209,-0.458L0.129,-0.458L0.144,-0.53L0.223,-0.53L0.228,-0.554C0.242,-0.627 0.277,-0.686 0.332,-0.733C0.352,-0.75 0.374,-0.763 0.395,-0.771C0.417,-0.779 0.443,-0.783 0.472,-0.783C0.5,-0.783 0.53,-0.778 0.563,-0.769L0.547,-0.692C0.521,-0.705 0.493,-0.711 0.463,-0.711C0.429,-0.711 0.4,-0.697 0.376,-0.67C0.351,-0.643 0.333,-0.599 0.322,-0.54L0.32,-0.53L0.466,-0.53L0.452,-0.458L0.306,-0.458L0.176,0.193L0.079,0.193Z" style="fill:white;fill-rule:nonzero;stroke:white;stroke-width:0.04px;stroke-linecap:butt;stroke-linejoin:round;stroke-miterlimit:2;"/>
            </g>
            <g transform="matrix(36,0,0,36,852.08,972)">
                <path d="M0.648,-0.042C0.546,-0.002 0.454,0.018 0.372,0.018C0.291,0.018 0.227,-0.006 0.18,-0.055C0.132,-0.103 0.109,-0.17 0.109,-0.255C0.109,-0.336 0.129,-0.415 0.169,-0.491C0.209,-0.568 0.263,-0.628 0.329,-0.673C0.395,-0.718 0.474,-0.741 0.567,-0.741C0.631,-0.741 0.699,-0.732 0.77,-0.716L0.752,-0.626C0.682,-0.648 0.635,-0.659 0.61,-0.661C0.586,-0.663 0.567,-0.664 0.555,-0.664C0.491,-0.664 0.435,-0.647 0.386,-0.614C0.338,-0.58 0.298,-0.53 0.266,-0.464C0.234,-0.397 0.218,-0.331 0.218,-0.264C0.218,-0.202 0.235,-0.153 0.269,-0.118C0.303,-0.083 0.352,-0.065 0.415,-0.065C0.439,-0.065 0.466,-0.067 0.495,-0.072C0.525,-0.076 0.581,-0.093 0.665,-0.124L0.648,-0.042Z" style="fill:white;fill-rule:nonzero;stroke:white;stroke-width:0.04px;stroke-linecap:butt;stroke-linejoin:round;stroke-miterlimit:2;"/>
            </g>
            <g transform="matrix(36,0,0,36,876.531,972)">
                <path d="M0.263,0.012C0.204,0.012 0.16,-0.005 0.131,-0.039C0.102,-0.073 0.088,-0.116 0.088,-0.167C0.088,-0.23 0.103,-0.292 0.133,-0.353C0.163,-0.415 0.201,-0.462 0.246,-0.494C0.292,-0.526 0.345,-0.542 0.406,-0.542C0.467,-0.542 0.512,-0.525 0.54,-0.491C0.568,-0.457 0.582,-0.414 0.582,-0.364C0.582,-0.302 0.567,-0.24 0.537,-0.179C0.508,-0.118 0.47,-0.07 0.425,-0.037C0.38,-0.004 0.326,0.012 0.263,0.012ZM0.284,-0.06C0.338,-0.06 0.384,-0.089 0.422,-0.148C0.46,-0.207 0.479,-0.272 0.479,-0.344C0.479,-0.386 0.471,-0.418 0.455,-0.439C0.439,-0.46 0.415,-0.47 0.383,-0.47C0.331,-0.47 0.286,-0.441 0.248,-0.383C0.21,-0.324 0.19,-0.259 0.19,-0.187C0.19,-0.145 0.198,-0.114 0.215,-0.092C0.231,-0.071 0.254,-0.06 0.284,-0.06Z" style="fill:white;fill-rule:nonzero;stroke:white;stroke-width:0.04px;stroke-linecap:butt;stroke-linejoin:round;stroke-miterlimit:2;"/>
            </g>
            <g transform="matrix(36,0,0,36,896.922,972)">
                <path d="M0.096,-0L0.249,-0.771L0.346,-0.771L0.193,-0L0.096,-0Z" style="fill:white;fill-rule:nonzero;stroke:white;stroke-width:0.04px;stroke-linecap:butt;stroke-linejoin:round;stroke-miterlimit:2;"/>
            </g>
            <g transform="matrix(36,0,0,36,907.328,972)">
                <path d="M0.263,0.012C0.204,0.012 0.16,-0.005 0.131,-0.039C0.102,-0.073 0.088,-0.116 0.088,-0.167C0.088,-0.23 0.103,-0.292 0.133,-0.353C0.163,-0.415 0.201,-0.462 0.246,-0.494C0.292,-0.526 0.345,-0.542 0.406,-0.542C0.467,-0.542 0.512,-0.525 0.54,-0.491C0.568,-0.457 0.582,-0.414 0.582,-0.364C0.582,-0.302 0.567,-0.24 0.537,-0.179C0.508,-0.118 0.47,-0.07 0.425,-0.037C0.38,-0.004 0.326,0.012 0.263,0.012ZM0.284,-0.06C0.338,-0.06 0.384,-0.089 0.422,-0.148C0.46,-0.207 0.479,-0.272 0.479,-0.344C0.479,-0.386 0.471,-0.418 0.455,-0.439C0.439,-0.46 0.415,-0.47 0.383,-0.47C0.331,-0.47 0.286,-0.441 0.248,-0.383C0.21,-0.324 0.19,-0.259 0.19,-0.187C0.19,-0.145 0.198,-0.114 0.215,-0.092C0.231,-0.071 0.254,-0.06 0.284,-0.06Z" style="fill:white;fill-rule:nonzero;stroke:white;stroke-width:0.04px;stroke-linecap:butt;stroke-linejoin:round;stroke-miterlimit:2;"/>
            </g>
            <g transform="matrix(36,0,0,36,927.719,972)">
                <path d="M0.096,-0L0.202,-0.53L0.298,-0.53L0.255,-0.313C0.282,-0.367 0.322,-0.419 0.373,-0.468C0.424,-0.518 0.473,-0.542 0.521,-0.542C0.543,-0.542 0.561,-0.535 0.578,-0.521C0.594,-0.507 0.602,-0.483 0.602,-0.45C0.602,-0.432 0.599,-0.411 0.595,-0.386L0.58,-0.313C0.615,-0.376 0.657,-0.43 0.705,-0.475C0.753,-0.52 0.8,-0.542 0.847,-0.542C0.868,-0.542 0.886,-0.535 0.903,-0.521C0.919,-0.507 0.927,-0.483 0.927,-0.45C0.927,-0.432 0.925,-0.411 0.92,-0.386L0.843,-0L0.747,-0L0.823,-0.386C0.825,-0.393 0.826,-0.401 0.826,-0.411C0.826,-0.423 0.823,-0.432 0.817,-0.437C0.811,-0.443 0.805,-0.446 0.798,-0.446C0.759,-0.446 0.678,-0.362 0.556,-0.193L0.518,-0L0.421,-0L0.498,-0.386C0.5,-0.393 0.5,-0.401 0.5,-0.411C0.5,-0.423 0.498,-0.432 0.492,-0.437C0.486,-0.443 0.48,-0.446 0.473,-0.446C0.435,-0.446 0.361,-0.371 0.25,-0.219L0.231,-0.193L0.193,-0L0.096,-0Z" style="fill:white;fill-rule:nonzero;stroke:white;stroke-width:0.04px;stroke-linecap:butt;stroke-linejoin:round;stroke-miterlimit:2;"/>
            </g>
            <g transform="matrix(36,0,0,36,961.328,972)">
                <path d="M0.415,-0L0.458,-0.217C0.417,-0.148 0.372,-0.092 0.323,-0.051C0.274,-0.009 0.228,0.012 0.186,0.012C0.155,0.012 0.13,-0.001 0.112,-0.027C0.094,-0.054 0.084,-0.083 0.084,-0.116C0.084,-0.181 0.103,-0.248 0.139,-0.319C0.175,-0.39 0.219,-0.445 0.272,-0.484C0.325,-0.523 0.381,-0.542 0.441,-0.542C0.452,-0.542 0.464,-0.542 0.478,-0.54C0.491,-0.538 0.505,-0.535 0.52,-0.53L0.616,-0.53L0.512,-0L0.415,-0ZM0.481,-0.332L0.505,-0.455C0.494,-0.461 0.482,-0.465 0.469,-0.469C0.457,-0.472 0.444,-0.473 0.431,-0.473C0.394,-0.473 0.357,-0.458 0.319,-0.427C0.281,-0.397 0.249,-0.352 0.224,-0.293C0.2,-0.235 0.187,-0.182 0.187,-0.134C0.187,-0.119 0.19,-0.107 0.197,-0.097C0.204,-0.087 0.214,-0.082 0.227,-0.082C0.275,-0.082 0.36,-0.165 0.481,-0.332Z" style="fill:white;fill-rule:nonzero;stroke:white;stroke-width:0.04px;stroke-linecap:butt;stroke-linejoin:round;stroke-miterlimit:2;"/>
            </g>
        </g>
    </g>
</svg>
